<svg xmlns="http://www.w3.org/2000/svg" width="8.781" height="8.413" viewBox="0 0 8.781 8.413">
  <defs>
    <style>
      .cls-1 {
        fill: #fff;
      }
    </style>
  </defs>
  <path id="star" class="cls-1" d="M8.591,4.86a.63.63,0,0,0-.349-1.074L6.115,3.477a.278.278,0,0,1-.209-.152L4.955,1.4a.63.63,0,0,0-1.129,0L2.875,3.325a.278.278,0,0,1-.209.152L.54,3.786A.63.63,0,0,0,.191,4.86l1.538,1.5a.278.278,0,0,1,.08.246L1.446,8.723a.63.63,0,0,0,.914.664l1.9-1a.278.278,0,0,1,.259,0l1.9,1a.63.63,0,0,0,.914-.664L6.972,6.606a.278.278,0,0,1,.08-.246ZM6.626,6.665l.363,2.117a.278.278,0,0,1-.4.293l-1.9-1a.63.63,0,0,0-.586,0l-1.9,1a.278.278,0,0,1-.4-.293l.363-2.117a.63.63,0,0,0-.181-.557L.436,4.608A.278.278,0,0,1,.59,4.134l2.126-.309A.629.629,0,0,0,3.19,3.48l.951-1.927a.278.278,0,0,1,.5,0L5.591,3.48a.629.629,0,0,0,.474.344l2.126.309a.278.278,0,0,1,.154.474l-1.538,1.5A.629.629,0,0,0,6.626,6.665Z" transform="translate(0 -1.047)"/>
</svg>
