<svg xmlns="http://www.w3.org/2000/svg" width="8.82" height="8.453" viewBox="0 0 8.82 8.453">
  <defs>
    <style>
      .cls-1 {
        fill: #ffc107;
      }
    </style>
  </defs>
  <path id="star_full_" data-name="star (full)" class="cls-1" d="M8.8,3.686a.468.468,0,0,0-.4-.322L5.848,3.132,4.841.776a.469.469,0,0,0-.862,0L2.973,3.132.426,3.363a.469.469,0,0,0-.266.82L2.085,5.871l-.567,2.5a.468.468,0,0,0,.7.506l2.2-1.312,2.2,1.312a.469.469,0,0,0,.7-.506l-.567-2.5L8.66,4.184a.469.469,0,0,0,.137-.5Zm0,0" transform="translate(0 -0.491)"/>
</svg>
