<svg xmlns="http://www.w3.org/2000/svg" width="18.056" height="14.436" viewBox="0 0 18.056 14.436">
  <defs>
    <style>
      .cls-1 {
        fill: #fff;
      }
    </style>
  </defs>
  <g id="Group_29" data-name="Group 29" transform="translate(-31.977 -76.692)">
    <g id="Group_26" data-name="Group 26" transform="translate(31.977 76.709)">
      <path id="Path_15" data-name="Path 15" class="cls-1" d="M34.2,77.16a.645.645,0,0,1,.8.271,1.086,1.086,0,0,1,.091.606c0,1.3,0,2.608,0,3.912a2.458,2.458,0,0,1,0,4.746c-.005,1.4,0,2.8,0,4.193a.644.644,0,0,1-1.288,0c0-1.4,0-2.8,0-4.2a2.5,2.5,0,0,1-1.375-.964A2.458,2.458,0,0,1,33.8,81.948c0-1.4,0-2.8,0-4.2A.644.644,0,0,1,34.2,77.16Zm.006,6.007a1.18,1.18,0,1,0,1.363.788A1.178,1.178,0,0,0,34.2,83.167Z" transform="translate(-31.977 -77.112)"/>
    </g>
    <g id="Group_27" data-name="Group 27" transform="translate(38.535 76.692)">
      <path id="Path_16" data-name="Path 16" class="cls-1" d="M195.64,77.242a2.468,2.468,0,1,1,2.2,4.3q0,4.471,0,8.943a.644.644,0,0,1-1.289,0q0-4.473,0-8.945a2.467,2.467,0,0,1-.907-4.3Zm1.288.779a1.179,1.179,0,1,0,1.405.857A1.195,1.195,0,0,0,196.928,78.021Z" transform="translate(-194.722 -76.692)"/>
    </g>
    <g id="Group_28" data-name="Group 28" transform="translate(45.105 76.709)">
      <path id="Path_17" data-name="Path 17" class="cls-1" d="M359.562,77.76a.644.644,0,0,1,1.287,0q0,3.188,0,6.376a2.518,2.518,0,0,1,1.373.965,2.458,2.458,0,0,1-1.371,3.788q0,.985,0,1.97a.655.655,0,0,1-.257.547.641.641,0,0,1-.793-.014.651.651,0,0,1-.24-.535c0-.654,0-1.309,0-1.963a2.456,2.456,0,0,1,0-4.744C359.562,82.02,359.558,79.89,359.562,77.76Zm.384,7.606a1.179,1.179,0,1,0,1.053.276A1.184,1.184,0,0,0,359.945,85.366Z" transform="translate(-357.742 -77.121)"/>
    </g>
  </g>
</svg>
