<svg xmlns="http://www.w3.org/2000/svg" width="23.469" height="20.92" viewBox="0 0 23.469 20.92">
  <defs>
    <style>
      .cls-1 {
        fill: #fff;
      }
    </style>
  </defs>
  <g id="home" transform="translate(0.001 -27.797)">
    <g id="Group_15" data-name="Group 15" transform="translate(-0.001 27.798)">
      <g id="Group_14" data-name="Group 14" transform="translate(0)">
        <path id="Path_3" data-name="Path 3" class="cls-1" d="M23.218,36.06,12.094,27.915a.61.61,0,0,0-.72,0L.249,36.06a.61.61,0,0,0,.72.984l10.764-7.881L22.5,37.044a.61.61,0,0,0,.72-.984Z" transform="translate(0.001 -27.798)"/>
      </g>
    </g>
    <g id="Group_17" data-name="Group 17" transform="translate(2.587 37.182)">
      <g id="Group_16" data-name="Group 16">
        <path id="Path_4" data-name="Path 4" class="cls-1" d="M74.136,232.543a.61.61,0,0,0-.61.61v9.706H68.648v-5.3a3.049,3.049,0,0,0-6.1,0v5.3H57.672v-9.706a.61.61,0,1,0-1.22,0v10.316a.61.61,0,0,0,.61.61h6.1a.609.609,0,0,0,.607-.562.461.461,0,0,0,0-.047v-5.908a1.83,1.83,0,0,1,3.659,0v5.908a.445.445,0,0,0,0,.047.609.609,0,0,0,.607.563h6.1a.61.61,0,0,0,.61-.61V233.153A.61.61,0,0,0,74.136,232.543Z" transform="translate(-56.452 -232.543)"/>
      </g>
    </g>
  </g>
</svg>
