<svg xmlns="http://www.w3.org/2000/svg" width="15.924" height="17.693" viewBox="0 0 15.924 17.693">
  <defs>
    <style>
      .cls-1 {
        fill: #fff;
      }
    </style>
  </defs>
  <g id="bookshelf" transform="translate(-16.506 -31.603)">
    <path id="Path_11" data-name="Path 11" class="cls-1" d="M245.53,51.118a.757.757,0,0,0-.757-.757h-.634a.757.757,0,0,0-.757.757V67.107h2.148Z" transform="translate(-219.551 -17.811)"/>
    <path id="Path_12" data-name="Path 12" class="cls-1" d="M172.972,83.56a.757.757,0,0,0-.757-.757h-.634a.757.757,0,0,0-.757.757V97.912h2.148Z" transform="translate(-150.656 -48.616)"/>
    <path id="Path_13" data-name="Path 13" class="cls-1" d="M100.414,32.36a.757.757,0,0,0-.757-.757h-.634a.757.757,0,0,0-.757.757V49.3h2.148Z" transform="translate(-81.76)"/>
    <path id="Path_14" data-name="Path 14" class="cls-1" d="M290.166,66.22h2.224l-4.35-16.232a.757.757,0,0,0-.927-.535l-.612.164a.757.757,0,0,0-.535.927Z" transform="translate(-259.961 -16.924)"/>
  </g>
</svg>
