<svg id="Group_21" data-name="Group 21" xmlns="http://www.w3.org/2000/svg" width="18.405" height="18.405" viewBox="0 0 18.405 18.405">
  <defs>
    <style>
      .cls-1 {
        fill: #fff;
      }
    </style>
  </defs>
  <g id="Group_20" data-name="Group 20">
    <path id="Path_5" data-name="Path 5" class="cls-1" d="M415.474,376.869a.719.719,0,0,0-1.006.148c-.13.175-.27.347-.415.511a.719.719,0,1,0,1.077.952c.171-.194.337-.4.491-.6A.719.719,0,0,0,415.474,376.869Z" transform="translate(-398.996 -363.185)"/>
    <path id="Path_6" data-name="Path 6" class="cls-1" d="M463.57,286.441a.719.719,0,0,0-.855.55c-.046.213-.1.427-.167.636a.719.719,0,1,0,1.374.424c.076-.247.143-.5.2-.754A.719.719,0,0,0,463.57,286.441Z" transform="translate(-445.889 -276.128)"/>
    <path id="Path_7" data-name="Path 7" class="cls-1" d="M335.036,442.285c-.191.107-.389.206-.587.3a.719.719,0,1,0,.592,1.31c.236-.107.47-.225.7-.351a.719.719,0,1,0-.7-1.255Z" transform="translate(-322.018 -426.298)"/>
    <path id="Path_8" data-name="Path 8" class="cls-1" d="M159.65,76.719v5.454l-2.636,2.636a.719.719,0,0,0,1.017,1.017l2.847-2.847a.719.719,0,0,0,.211-.508V76.719a.719.719,0,1,0-1.438,0Z" transform="translate(-151.167 -73.268)"/>
    <path id="Path_9" data-name="Path 9" class="cls-1" d="M17.686,1.546a.719.719,0,0,0-.719.719v2A9.2,9.2,0,1,0,9.2,18.4h.036c.259,0,.521-.011.778-.032A.719.719,0,1,0,9.9,16.94c-.217.018-.439.027-.658.027H9.2A7.765,7.765,0,1,1,15.886,5.248H13.909a.719.719,0,1,0,0,1.438H16.1a2.287,2.287,0,0,0,1.2-.336.718.718,0,0,0,.065-.041A2.3,2.3,0,0,0,18.4,4.386V2.265A.719.719,0,0,0,17.686,1.546Z" transform="translate(0 0)"/>
  </g>
</svg>
